<?xml version="1.0" standalone="no"?><!DOCTYPE svg PUBLIC "-//W3C//DTD SVG 1.1//EN" "http://www.w3.org/Graphics/SVG/1.1/DTD/svg11.dtd"><svg t="1734316259326" class="icon" viewBox="0 0 1024 1024" version="1.1" xmlns="http://www.w3.org/2000/svg" p-id="4638" width="256" height="256" xmlns:xlink="http://www.w3.org/1999/xlink"><path d="M698.091924 1022.789251c-162.089801 0-293.47469-131.395122-293.47469-293.464456s131.384889-293.469573 293.469573-293.469573c121.509788 0 225.771409 73.85859 270.347511 179.133303l23.132295-44.970083c40.44698-51.35564-5.54643-92.370566-42.273617-107.925129l-80.269731-44.934266 5.152449 1.92897v-150.940658c0-4.456587-132.336583-133.538991-134.158104-134.158104h-117.385782V50.137882c0.010233-31.098892-33.846524-34.061422-33.544643-33.539526H428.839372c-2.000603 0.527013-15.314081-6.53394-40.989343 33.539526v83.846256H270.45913c0.772612 0-134.720933 135.994975-134.23997 137.023418v145.378879l-81.861003 45.691528C17.533753 477.637643-21.644302 518.647452 18.910127 570.003092l99.973882 207.325949 67.723748 245.46021h511.484167c31.006793 1.581039 8.381044 0 8.381044 0h-8.381044zM203.380078 301.686885c0-4.814751 92.063568-85.064015 111.762604-100.700444l187.278982-1.340558 187.765062 1.361024c19.770668 15.641546 116.915052 95.870343 116.915053 100.685094V385.538258l-251.549003-117.390899H454.929081L203.380078 385.533141V301.686885z" fill="#9B9B9B" p-id="4639"></path><path d="M984.607993 923.020034l-76.28899-65.605461c-0.035816-0.0307-0.081866-0.0307-0.10745-0.071633 20.845161-35.074516 33.038096-75.889893 33.038096-119.642218 0-129.68105-105.110981-234.786915-234.776681-234.786915-129.660584 0-234.776682 105.105865-234.776682 234.786915 0 129.665701 105.116098 234.776682 234.776682 234.776682 43.511843 0 84.107205-12.04967 119.053804-32.679932 1.867571 2.343418 3.903991 4.599853 6.262759 6.615806l76.283873 65.600345c21.065176 18.133346 53.141345 15.380597 71.627738-6.134842l9.568103-11.123559c18.486393-21.489856 16.403924-53.606959-4.661252-71.735188z m-278.43179-13.922357c-94.493969 0-171.089957-76.606222-171.089957-171.10019s76.601105-171.095074 171.089957-171.095074c94.504202 0 171.10019 76.601105 171.10019 171.095074 0.01535 94.493969-76.595988 171.10019-171.10019 171.10019z" fill="#00A6D3" p-id="4640"></path></svg>